<?xml version="1.0" encoding="UTF-8"?>
<!-- Generator: Adobe Illustrator 27.4.1, SVG Export Plug-In . SVG Version: 6.00 Build 0)  -->
<svg xmlns="http://www.w3.org/2000/svg" xmlns:xlink="http://www.w3.org/1999/xlink" version="1.1" id="Layer_1" x="0px" y="0px" viewBox="0 0 1920 1080" style="enable-background:new 0 0 1920 1080;" xml:space="preserve">
<style type="text/css">
	.st0{fill:none;}
	.st1{fill:#E21936;}
	.st2{fill:#FFFFFF;}
</style>
<rect x="0.2" y="0.4" class="st0" width="1920" height="1080"></rect>
<path class="st1" d="M136.5,60.9c-0.9,22-1.3,49.3-1.3,81.7c0,24.6-5.1,42.1-15.2,52.5c-8.6,8.9-21.9,13.3-40.1,13.3  c-6.5,0-13-0.8-19.4-2.3l2-23.8c5,2.2,9.9,3.3,14.9,3.3c9.7,0,16.7-2.1,21.1-6.3c6.3-6.1,9.4-17.5,9.4-34.4  c0-33.8-0.6-61.8-1.7-83.9H136.5z"></path>
<path class="st1" d="M286,60.9c-0.7,24.9-1,49.7-1,74.6c0,49.1-20.1,73.7-60.4,73.7c-19.9,0-34.9-5.4-44.9-16.3  c-10.1-10.9-15.1-30.4-15.1-58.6c0-24.9-0.3-49.3-1-73.3H195c-1,25-1.4,49.1-1.4,72.3c0,20.3,2.6,34.3,7.8,41.8  c5.2,7.5,13.2,11.3,24,11.3c11.3,0,19.5-3.8,24.5-11.3c5-7.5,7.5-21.5,7.5-42.1c0-22.6-0.5-46.6-1.4-72.1H286z"></path>
<path class="st1" d="M409.8,166c0,28.9-20.8,43.4-62.4,43.4c-14.1,0-27.3-1.7-39.4-5.1l5.4-24.7c12,4.1,23.3,6.2,33.9,6.2  c11.8,0,20.3-1.1,25.5-3.4c5.2-2.3,7.8-6.1,7.8-11.5c0-5.6-2.4-10.3-7.3-14.2c-4.2-3.4-12.8-7.8-25.6-13.3  c-11.7-5-20.4-10.5-26.1-16.4c-7.2-7.5-10.8-16.7-10.8-27.6c0-12.7,4.7-22.7,14.1-29.8c9.4-7.2,23-10.8,40.7-10.8  c14.5,0,26.7,1.2,36.5,3.7l-4.1,24.6c-10-3.6-20.8-5.4-32.4-5.4c-17.5,0-26.2,4.7-26.2,14c0,5,2,9,6.1,12.1  c3.5,2.7,11.3,6.4,23.2,11.2c12.6,5.1,22.1,10.7,28.4,16.9C405.6,143.8,409.8,153.9,409.8,166z"></path>
<path class="st1" d="M535.4,60.9l-0.8,23.9c-14.8-1.1-28.7-1.7-41.8-1.7c-0.1,14-0.2,29.6-0.2,46.7c0,26.6,0.4,51.8,1.2,75.6h-31.1  c1-23.5,1.4-48.7,1.4-75.6c0-16.9-0.1-32.4-0.4-46.7c-10.4,0-24.7,0.6-42.9,1.8l0.9-24H535.4z"></path>
<path class="st1" d="M65.6,743.2c-35.2,0-60.4,3.4-60.4-23.7c0-132.8,295.8-315.9,295.8-355.5c0-19.8-29.8-24.3-55.9-24.3  c-94.7,0-117.2,32.2-134.4,32.2c-22.5,0-61.3-88.2-61.3-93.8c0-7.3,29.8-5.1,36.1-5.1h414.8c15.3,0,35.2,5.1,35.2,18.1  c0,67.8-328.2,274.1-328.2,345.3c0,24.9,48.7,34.5,87.5,34.5c93.8,0,128.9-41.3,148.8-41.3c17.1,0,70.3,102.3,70.3,105.1  c0,5.1-9.9,8.5-40.6,8.5H65.6z"></path>
<path class="st1" d="M639.1,743.2c-44.2,0-47.8,11.9-47.8-187.1c0-193.3,14.4-174.6,44.2-174.6h49.6c37.9,0,38.8,1.7,38.8,8.5  c0,20.9-10.8,41.8-10.8,103.4c0,142.4,35.2,230,35.2,235.1c0,18.1-27.1,14.7-47.8,14.7H639.1z"></path>
<path class="st1" d="M867.2,743.2c-31.6,0-28-189.3-28-202.3c0-26.6-3.6-279.8,37-279.8h85.7c9.9,0,37-1.7,37,10.7  c0,3.4-37.9,84.8-37.9,225.5c0,155.4,34.3,231.7,34.3,239.1c0,9.6-23.5,6.8-33.4,6.8H867.2z"></path>
<path class="st1" d="M1040.3,580.4c0-97.2,78.5-207.4,256.1-207.4c78.4,0,135.3,26.6,135.3,58.8c0,16.9-19.8,49.7-53.2,49.7  c-20.7,0-17.1-41.8-90.2-41.8c-92.9,0-126.2,76.9-126.2,124.4c0,54.8,41.5,100.6,127.1,100.6c97.4,0,119.9-56,128.1-56  c4.5,0,13.5,10.2,13.5,33.3c0,67.8-71.2,109.6-177.7,109.6C1103.5,751.7,1040.3,662.9,1040.3,580.4z"></path>
<path class="st1" d="M1656.2,261.1c8.1,0,14.4,6.2,14.4,11.9c0,7.9-34.3,63.3-34.3,108.5c0,6.8,0,17.5,15.3,17.5  c7.2,0,21.6-5.1,41.5-12.4c20.7-6.8,46-13.6,75.7-13.6c82.1,0,142.5,36.7,142.5,172.9c0,54.3-12.6,197.3-40.6,197.3H1777  c-8.1,0-32.5,1.7-32.5-7.3c0-4,45.1-115.9,45.1-191c0-87.6-23.4-105.1-67.6-105.1c-92,0-93.8,88.2-93.8,128.3  c0,113,19.8,149.8,19.8,166.2c0,9-17.1,9-26.1,9h-89.3c-26.1,0-26.1,19.2-26.1-231.7c0-45.2,1.8-250.4,51.4-250.4H1656.2z"></path>
<path class="st1" d="M783.4,166c-29.1-38.9-95.2-38.8-147.5,0.4c-52.3,39.1-71.2,102.5-42,141.4c29.1,38.9,95.2,38.8,147.5-0.4  C793.7,268.3,812.6,205,783.4,166z M737.3,263.6c-32.3,24.2-73.1,24.3-91.1,0.2c-18-24-6.4-63.1,26-87.3  c32.3-24.2,73.1-24.3,91.1-0.2C781.3,200.3,769.6,239.4,737.3,263.6z"></path>
<g>
	<path class="st2" d="M590.2,982.1c-3.5,0-6.1,0-9.2,0c0-26.4,0-52.5,0-79.1c12.3,0,24.3-1.2,36,1.5c9.5,2.2,14.8,8.7,15.4,17.7   c0.7,11.1-3.5,18.2-13.2,22.1c-1.7,0.7-3.4,1.2-5.7,2.1c7.2,11.9,14.2,23.4,21.8,36c-4.2,0-7.1,0.4-9.8-0.2c-1.7-0.4-3.5-2-4.5-3.6   c-5.1-8-10.4-16-14.6-24.4c-3.4-6.8-8-8.7-15.8-6.6C590,958.7,590.9,970.1,590.2,982.1z M590.8,911.8c0,9.2,0,17.1,0,25.7   c7.5-0.1,14.6,0.7,21.6-1.2c6.6-1.8,9.6-5.6,9.5-11.8c-0.1-6-3.7-10.5-10.1-11.3C605.2,912.3,598.4,912.2,590.8,911.8z"></path>
	<path class="st2" d="M510.1,898.1c3.4,0,5.9,0,8.9,0c0,28,0,55.6,0,83.9c-2.7,0.1-5.2,0.3-8.1,0.4c-0.6-2.4-1.1-4.5-1.6-6.6   c-15.3,10.4-28.3,10.2-38.1-0.3c-9.1-9.8-10-25.9-2-36.6c4.9-6.5,11.5-9.7,19.6-10.4c7.8-0.6,14.5,1.8,21.3,8.2   C510.1,922.7,510.1,910.5,510.1,898.1z M492.1,974.7c10.5-0.1,17.8-7.9,17.8-18.9c-0.1-10.9-7.6-18.8-18-18.9   c-10.5,0-18.3,8.2-18.1,19.4C473.9,967.2,481.6,974.8,492.1,974.7z"></path>
	<path class="st2" d="M1331.1,973c2.8-2.4,5.2-4.4,7.9-6.7c1.5,1.4,2.6,2.5,3.8,3.6c6.5,5.6,16.5,6.5,23.7,2   c4.2-2.6,6.4-6.2,6.3-11.3c-0.2-5-2.8-8.1-7.1-10c-3.6-1.6-7.3-2.7-11-4.1c-3.5-1.3-7.1-2.4-10.4-4.1c-14.5-7.4-15.8-27.2-2.2-36.2   c10.3-6.9,21.4-6.8,32.5-2c2.7,1.2,4.9,3.6,7.9,5.9c-3,2.7-5.4,4.8-8,7.1c-4.8-5.1-10.3-7.7-16.9-6.7c-3,0.5-6.2,1.3-8.7,2.8   c-7.3,4.4-7.4,14.6-0.2,19.1c3.5,2.2,7.5,3.3,11.3,4.9c4,1.6,8.2,2.9,12.1,4.7c15.1,7,14,27.2,4,35.5c-10.3,8.6-30.9,8.8-41.1,0   C1333.8,976.4,1332.7,974.9,1331.1,973z"></path>
	<path class="st2" d="M1059.7,912.1c0,8.8,0,16.6,0,25.2c11.9,0.7,23.8-0.1,36,0.5c0,2.9,0,5.5,0,8.8c-11.9,0.5-23.8-0.1-36.3,0.4   c0,11.9,0,23.2,0,34.9c-3.5,0-6.2,0-9,0c-1.4-5.1-1.4-72.8,0-78.7c15.7,0,31.5,0,47.9,0c0,2.7,0,5.3,0,8.7   c-6.2,0.1-12.5,0.1-18.8,0.2C1073.2,912.1,1066.8,912.1,1059.7,912.1z"></path>
	<path class="st2" d="M264.4,937.6c12.3,0,23.9,0,36.2,0c0.2,2.9,0.3,5.5,0.5,8.7c-6.2,1.1-12.2,0.4-18,0.5c-5.9,0.1-11.9,0-18.6,0   c-0.7,12,0.1,23.5-0.5,35.2c-3.2,0-5.8,0-8.4,0c-1.6-4.4-2-70.1-0.5-78.7c15.9,0,31.8,0,48.2,0c0,2.8,0,5.3,0,8.7   c-12.9,0-25.5,0-38.7,0C264,921,264.2,929.1,264.4,937.6z"></path>
	<path class="st2" d="M953.1,958.7c-13.7,0-27.1,0-41.2,0c0.8,7.1,3.8,11.9,9.6,14.5c8.8,3.9,16.5,1.2,23.4-6.1   c2.1,1.6,4.2,3.1,6.5,4.8c-2.1,4.7-5.8,7.2-9.9,9.1c-11.3,5.1-25,2.7-32.7-5.6c-7.8-8.6-9.4-22.9-3.7-33.6   c5.8-10.7,17.9-15.9,31.4-12.3C948.3,932.7,954.7,944,953.1,958.7z M912.4,950.2c9.3,1.2,26.8,0.8,30.8-0.6   c-1.2-8.2-6.2-12.5-14.7-12.6C919.7,936.9,913.9,941.5,912.4,950.2z"></path>
	<path class="st2" d="M1614,958.7c-13.4,0-26.9,0-40.8,0c0.5,7.3,3.9,12.1,9.7,14.6c8.9,3.8,16.5,0.7,23.3-6.1   c2.2,1.7,4.2,3.3,6.5,5c-0.9,1.3-1.4,2.2-2,2.9c-7.6,8.4-21.6,11-32.6,6.2c-10.1-4.5-16.3-15.7-15.3-27.4   c1.6-17.2,14.5-27.5,31.6-25.2C1607.9,930.5,1616.7,943.6,1614,958.7z M1573.2,950.3c10.7,0,20.8,0,31,0   c-0.6-8.1-4.8-12.3-12.9-13.3C1582.3,936.1,1575.8,940.6,1573.2,950.3z"></path>
	<path class="st2" d="M1208.6,958.7c-13.7,0-27.1,0-41.2,0c0.7,7,3.7,11.9,9.5,14.5c8.8,3.9,16.5,1.1,23.4-6c2.1,1.6,4.2,3.1,6.7,5   c-2.5,4.3-6,7.1-10.2,8.9c-10.5,4.7-23.9,3-31.3-4.4c-8.8-8.8-10.4-19.4-6.7-30.9c4.1-12.5,16.1-19.9,31.9-16.6   C1203.1,931.6,1210.2,943.4,1208.6,958.7z M1198.9,950.7c-1.5-9.5-6.4-13.7-14.9-13.8c-8.6-0.1-14.5,4.5-16.2,13.8   C1178.1,950.8,1188.2,950.8,1198.9,950.7z"></path>
	<path class="st2" d="M1277.9,958.6c-14.1,0-27.5,0-41.5,0c0.6,6.9,3.6,11.4,9,14.4c6.9,3.8,14.6,1.9,24-5.6   c1.1,0.7,2.3,1.4,3.5,2.2c1,0.7,1.8,1.6,3,2.8c-1.3,1.5-2.3,3.1-3.6,4.2c-9.1,7.7-19.5,8.9-30.2,4.7c-10.6-4.1-15.4-12.8-15.9-23.8   c-0.8-17.9,10.9-29.7,28.4-29.1c11.9,0.4,20.7,8,22.7,19.8C1277.8,951.5,1277.7,954.8,1277.9,958.6z M1267.3,950.8   c-0.7-9.3-6.1-14-14.9-13.8c-8.8,0.1-14.8,5.3-15.4,13.5c1.8,0.1,3.6,0.3,5.4,0.3C1250.6,950.8,1258.7,950.8,1267.3,950.8z"></path>
	<path class="st2" d="M701.7,958.8c-6.9,0-13.7,0-20.5,0c-6.6,0-13.2,0-20.4,0c0.5,6.8,3.5,11.6,9,14.2c9,4.3,16.9,1.3,23.9-5.8   c2.2,1.7,4.2,3.2,6.7,5.1c-1.5,1.8-2.5,3.3-3.8,4.5c-9.1,7.7-19.5,8.9-30.2,4.7c-10.6-4.1-15.3-12.8-15.8-23.8   c-0.8-17.9,10.9-29.7,28.4-29.1c11.9,0.4,20.6,8.1,22.7,19.9c0.4,2,0.4,4.1,0.5,6.2C702.2,955.7,701.9,956.9,701.7,958.8z    M691.7,950.4c-0.6-8.9-6.1-13.6-14.8-13.5c-8.8,0.1-14.8,5.3-15.4,13.5C671.4,950.4,681.3,950.4,691.7,950.4z"></path>
	<path class="st2" d="M1474.3,928.5c16.5,0,27.9,11.1,28,27.3c0,16.4-11.7,28-28.3,27.8c-16.1-0.1-28-12-27.9-27.8   C1446.3,939.8,1457.9,928.5,1474.3,928.5z M1474.5,974.7c10.5-0.1,18-8,18-18.8c-0.1-10.9-7.6-18.8-18-18.9   c-10.5-0.1-18.4,8.2-18.2,19.3C1456.3,967.1,1463.9,974.8,1474.5,974.7z"></path>
	<path class="st2" d="M346.6,928.5c16.2,0.1,27.8,11.8,27.7,27.8c-0.2,15.9-12.1,27.4-28.3,27.3c-16.5-0.1-28.1-11.8-27.9-28.3   C318.3,939.3,329.9,928.3,346.6,928.5z M328.2,955.4c-0.2,11.2,6.8,19.1,17.2,19.3c10.6,0.3,18.4-7.2,18.7-18   c0.3-11.3-7-19.5-17.6-19.7C336,936.8,328.4,944.5,328.2,955.4z"></path>
	<path class="st2" d="M419.4,928.5c16.4,0,28.1,11.4,28.1,27.4c0,16.1-12.1,27.9-28.5,27.7c-16.2-0.1-27.7-11.8-27.6-27.9   C391.4,939.6,402.8,928.4,419.4,928.5z M401.4,956.1c0.1,11.1,7.4,18.7,18,18.6c10.5-0.1,18-7.8,18-18.7c0-11.2-7.8-19.3-18.4-19.1   C408.5,937.2,401.3,945,401.4,956.1z"></path>
	<path class="st2" d="M835.7,930c3.6,0,6,0,8.9,0c0.2,2,0.5,3.7,0.6,5.5c0.1,7,0,14.1,0,21.1c0,2.1,0,4.1,0.1,6.2   c0.6,7.1,3.4,10.9,8.8,11.8c6.7,1.2,13.2-1.5,15.6-7.3c1.6-3.9,2.4-8.3,2.6-12.6c0.4-8,0.1-16,0.1-24.5c3.1,0,5.7,0,8.9,0   c0,17,0,34.1,0,51.9c-2.1,0.1-4.5,0.2-7.2,0.3c-0.6-2.1-1.1-4-1.8-6.3c-0.9,0.8-1.6,1.4-2.4,2c-7,5.9-14.9,7-23.2,3.7   c-8.2-3.3-10.7-10.5-11-18.5c-0.3-8-0.1-16.1-0.1-24.2C835.7,936.3,835.7,933.4,835.7,930z"></path>
	<path class="st2" d="M716.3,973.1c2.3-1.7,4.3-3.3,6.5-5c1.9,1.6,3.5,3,5.1,4.1c4.9,3.3,10.1,3.3,15.3,1c2.6-1.2,4.3-3.2,4.1-6.3   c-0.1-2.8-1.8-4.6-4.3-5.6c-2.7-1-5.5-1.6-8.3-2.5c-3.3-1.1-6.8-1.8-9.9-3.4c-7-3.7-9-12.5-4.6-19.2c7.3-11.1,28.2-10.2,35.1,2   c-2,1.5-4.1,3-6.5,4.7c-1.6-1.3-2.9-2.5-4.3-3.5c-4.1-2.9-8.6-3.2-12.9-1c-1.7,0.9-3.3,3.1-3.9,5c-0.8,2.6,1.4,4.2,3.6,5   c2.7,1,5.5,1.7,8.3,2.5c3.2,0.9,6.5,1.5,9.4,2.9c9.6,4.5,11.3,17,3.6,24.4C744.7,985.9,722.2,986,716.3,973.1z"></path>
	<path class="st2" d="M819.8,937.2c-2,1.9-4.1,3.8-6.4,5.8c-1.7-1.3-3.1-2.4-4.7-3.4c-9.2-5.9-21.3-1.8-24.8,8.5   c-1.9,5.5-1.8,11,0.5,16.3c4.7,10.7,17,13.6,26.2,6.3c0.6-0.5,1.3-1.1,2.5-2.1c2,1.8,4.1,3.7,6.1,5.4c-4.8,7.9-15.4,11.2-26.5,8.6   c-11.8-2.8-19.4-11.8-20.1-25c-0.7-12.3,4.9-22.6,16.2-27.3C799.8,925.9,812.6,928.6,819.8,937.2z"></path>
	<path class="st2" d="M1407.6,938c-4.2-0.2-7.3-0.4-10.8-0.6c0-2.4,0-4.6,0-7.2c3.4-0.3,6.8-0.6,10.9-1c0-4.8,0-9.2,0-14   c3.4,0,6,0,9.3,0c0,4.7,0,9.1,0,14.4c5.4,0,10,0,14.9,0c0,3,0,5.1,0,7.9c-4.8,0-9.3,0-14.1,0c-0.3,2.1-0.7,3.7-0.7,5.3   c-0.1,7.4-0.1,14.9,0,22.3c0.1,8.5,2.7,10.6,11.1,9.3c1-0.2,2-0.4,3.6-0.8c0,2.8,0,5.3,0,8.3c-2.1,0.5-4.2,1.3-6.4,1.5   c-8.9,0.8-17.2-0.4-17.8-14.1c-0.3-8-0.2-16.1-0.2-24.2C1407.6,942.9,1407.6,940.7,1407.6,938z"></path>
	<path class="st2" d="M1522.2,930.1c2.3,0,4.7,0,7.5,0c0.4,1.7,0.8,3.4,1.3,5.7c5.7-5.1,11.8-8.6,19.9-6.7c0,2.9,0,5.6,0,8.5   c-1.9,0.1-3.4,0.2-4.8,0.2c-8.4,0.2-13.1,4.1-14.3,12.4c-0.7,5.1-0.6,10.3-0.7,15.4c-0.1,5.3,0,10.6,0,16.4c-3.3,0-5.9,0-8.4,0   C1521.5,978,1521.1,936.5,1522.2,930.1z"></path>
	<path class="st2" d="M1125.8,982c-3.2,0-5.6,0-8.7,0c0-17.3,0-34.3,0-51.8c2.3,0,4.9,0,7.6,0c0.3,1.7,0.6,3.2,0.9,5.1   c0.7-0.2,1.4-0.2,1.7-0.5c5.1-4.8,10.9-7.3,18.4-5.8c0,2.8,0,5.5,0,8.8c-2.2,0-4.1-0.1-5.8,0c-6.5,0.3-10.5,3.2-12.3,9.4   c-0.9,2.9-1.3,6.1-1.4,9.1c-0.2,6.4-0.1,12.8-0.1,19.2C1126.1,977.5,1125.9,979.5,1125.8,982z"></path>
	<path class="st2" d="M1641.4,969.5c3.9-0.1,6.9,2.5,7.1,6.2c0.2,3.9-2.9,7.1-6.9,7.1c-3.7,0-6.8-3.1-6.9-6.6   C1634.6,972.6,1637.6,969.6,1641.4,969.5z"></path>
	<path class="st2" d="M980.5,982.7c-3.7,0-6.9-3-7-6.5c-0.1-3.8,3.1-6.9,7.2-6.8c3.8,0.1,6.6,3,6.6,6.7   C987.2,979.9,984.3,982.7,980.5,982.7z"></path>
	<path class="st1" d="M1863.3,1016.6c-607.9,0-1215.5,0-1823.6,0c0-48.3,0-96,0-144c607.9,0,1215.5,0,1823.6,0   C1863.3,920.4,1863.3,968,1863.3,1016.6z M590.2,982.1c0.7-12-0.2-23.4,0.5-34.5c7.8-2.1,12.4-0.2,15.8,6.6   c4.2,8.5,9.6,16.4,14.6,24.4c1,1.6,2.8,3.2,4.5,3.6c2.7,0.6,5.6,0.2,9.8,0.2c-7.6-12.6-14.6-24.1-21.8-36c2.3-0.8,4-1.4,5.7-2.1   c9.7-3.9,13.9-11,13.2-22.1c-0.6-9.1-5.9-15.5-15.4-17.7c-11.8-2.8-23.7-1.5-36-1.5c0,26.7,0,52.8,0,79.1   C584.1,982.1,586.8,982.1,590.2,982.1z M510.1,898.1c0,12.4,0,24.6,0,38.6c-6.8-6.5-13.6-8.9-21.3-8.2c-8.1,0.6-14.7,3.9-19.6,10.4   c-8,10.7-7.1,26.9,2,36.6c9.8,10.5,22.8,10.7,38.1,0.3c0.5,2.2,1.1,4.3,1.6,6.6c2.9-0.2,5.4-0.3,8.1-0.4c0-28.3,0-55.9,0-83.9   C516.1,898.1,513.5,898.1,510.1,898.1z M1331.1,973c1.6,1.8,2.7,3.3,4.1,4.5c10.1,8.8,30.8,8.6,41.1,0c9.9-8.3,11.1-28.4-4-35.5   c-3.9-1.8-8.1-3.1-12.1-4.7c-3.8-1.5-7.9-2.7-11.3-4.9c-7.2-4.5-7-14.7,0.2-19.1c2.6-1.5,5.7-2.4,8.7-2.8c6.6-1,12.1,1.6,16.9,6.7   c2.6-2.3,4.9-4.4,8-7.1c-3.1-2.3-5.2-4.7-7.9-5.9c-11.1-4.9-22.2-4.9-32.5,2c-13.6,9-12.3,28.8,2.2,36.2c3.3,1.7,6.9,2.8,10.4,4.1   c3.7,1.4,7.4,2.6,11,4.1c4.3,1.9,6.9,4.9,7.1,10c0.2,5.1-2.1,8.7-6.3,11.3c-7.2,4.5-17.2,3.6-23.7-2c-1.2-1-2.4-2.2-3.8-3.6   C1336.3,968.6,1333.8,970.7,1331.1,973z M1059.7,912.1c7.1,0,13.5,0,19.9,0c6.3,0,12.6-0.1,18.8-0.2c0-3.5,0-6,0-8.7   c-16.4,0-32.2,0-47.9,0c-1.4,5.9-1.3,73.6,0,78.7c2.8,0,5.5,0,9,0c0-11.7,0-23,0-34.9c12.5-0.5,24.4,0.2,36.3-0.4   c0-3.4,0-5.9,0-8.8c-12.3-0.6-24.1,0.2-36-0.5C1059.7,928.7,1059.7,920.9,1059.7,912.1z M264.4,937.6c-0.2-8.5-0.5-16.6,0.2-25.5   c13.2,0,25.8,0,38.7,0c0-3.4,0-5.9,0-8.7c-16.4,0-32.3,0-48.2,0c-1.5,8.6-1.1,74.3,0.5,78.7c2.6,0,5.2,0,8.4,0   c0.6-11.7-0.2-23.2,0.5-35.2c6.7,0,12.6,0.1,18.6,0c5.9-0.1,11.8,0.6,18-0.5c-0.2-3.3-0.3-5.8-0.5-8.7   C288.3,937.6,276.7,937.6,264.4,937.6z M953.1,958.7c1.6-14.7-4.8-26-16.5-29.2c-13.6-3.7-25.6,1.5-31.4,12.3   c-5.8,10.7-4.2,25.1,3.7,33.6c7.6,8.3,21.4,10.8,32.7,5.6c4.1-1.9,7.8-4.4,9.9-9.1c-2.3-1.7-4.4-3.3-6.5-4.8   c-6.9,7.2-14.6,9.9-23.4,6.1c-5.8-2.5-8.8-7.4-9.6-14.5C926,958.7,939.4,958.7,953.1,958.7z M1614,958.7c2.7-15.1-6.1-28.1-19.5-30   c-17.1-2.4-30,7.9-31.6,25.2c-1.1,11.7,5.2,22.9,15.3,27.4c10.9,4.8,25,2.2,32.6-6.2c0.7-0.7,1.1-1.6,2-2.9c-2.3-1.7-4.3-3.3-6.5-5   c-6.8,6.8-14.4,9.9-23.3,6.1c-5.9-2.5-9.2-7.3-9.7-14.6C1587.1,958.7,1600.6,958.7,1614,958.7z M1208.6,958.7   c1.6-15.2-5.5-27-17.7-29.5c-15.8-3.2-27.8,4.2-31.9,16.6c-3.8,11.5-2.1,22.1,6.7,30.9c7.4,7.4,20.8,9.1,31.3,4.4   c4.2-1.9,7.6-4.6,10.2-8.9c-2.5-1.9-4.6-3.4-6.7-5c-7,7.1-14.6,9.9-23.4,6c-5.8-2.5-8.8-7.4-9.5-14.5   C1181.6,958.7,1194.9,958.7,1208.6,958.7z M1277.9,958.6c-0.2-3.9,0-7.1-0.6-10.3c-2-11.8-10.8-19.4-22.7-19.8   c-17.5-0.6-29.2,11.3-28.4,29.1c0.5,11,5.3,19.7,15.9,23.8c10.7,4.2,21.1,3,30.2-4.7c1.3-1.1,2.3-2.7,3.6-4.2   c-1.3-1.2-2.1-2.1-3-2.8c-1.1-0.8-2.4-1.5-3.5-2.2c-9.4,7.5-17.1,9.3-24,5.6c-5.4-2.9-8.4-7.4-9-14.4   C1250.4,958.6,1263.8,958.6,1277.9,958.6z M701.7,958.8c0.3-1.9,0.6-3.1,0.5-4.3c0-2.1-0.1-4.1-0.5-6.2   c-2.1-11.8-10.8-19.4-22.7-19.9c-17.5-0.6-29.2,11.3-28.4,29.1c0.5,11,5.3,19.7,15.8,23.8c10.7,4.2,21.1,3,30.2-4.7   c1.3-1.1,2.3-2.7,3.8-4.5c-2.5-1.9-4.6-3.5-6.7-5.1c-7,7.1-14.9,10.1-23.9,5.8c-5.5-2.6-8.5-7.4-9-14.2c7.2,0,13.8,0,20.4,0   C688,958.8,694.7,958.8,701.7,958.8z M1474.3,928.5c-16.4,0-28,11.3-28.2,27.3c-0.1,15.8,11.7,27.7,27.9,27.8   c16.6,0.1,28.3-11.4,28.3-27.8C1502.2,939.6,1490.8,928.5,1474.3,928.5z M346.6,928.5c-16.6-0.1-28.3,10.8-28.5,26.8   c-0.2,16.4,11.4,28.2,27.9,28.3c16.2,0.1,28.1-11.4,28.3-27.3C374.4,940.3,362.8,928.6,346.6,928.5z M419.4,928.5   c-16.5,0-28,11.1-28.1,27.2c-0.1,16.1,11.5,27.7,27.6,27.9c16.5,0.2,28.5-11.6,28.5-27.7C447.4,939.9,435.7,928.5,419.4,928.5z    M835.7,930c0,3.4,0,6.3,0,9.1c0,8.1-0.2,16.1,0.1,24.2c0.3,8,2.8,15.2,11,18.5c8.3,3.3,16.2,2.3,23.2-3.7c0.7-0.6,1.5-1.3,2.4-2   c0.7,2.3,1.2,4.2,1.8,6.3c2.8-0.1,5.1-0.2,7.2-0.3c0-17.8,0-34.9,0-51.9c-3.2,0-5.8,0-8.9,0c0,8.5,0.3,16.5-0.1,24.5   c-0.2,4.2-1,8.7-2.6,12.6c-2.4,5.8-8.9,8.5-15.6,7.3c-5.4-0.9-8.2-4.7-8.8-11.8c-0.2-2.1-0.1-4.1-0.1-6.2c0-7,0-14.1,0-21.1   c0-1.8-0.4-3.5-0.6-5.5C841.7,930,839.2,930,835.7,930z M716.3,973.1c5.9,12.9,28.4,12.8,36.5,5.1c7.7-7.3,6-19.9-3.6-24.4   c-2.9-1.4-6.3-1.9-9.4-2.9c-2.8-0.8-5.6-1.5-8.3-2.5c-2.2-0.8-4.4-2.5-3.6-5c0.6-1.9,2.2-4.1,3.9-5c4.3-2.2,8.8-1.9,12.9,1   c1.5,1,2.8,2.3,4.3,3.5c2.4-1.7,4.5-3.2,6.5-4.7c-6.9-12.2-27.8-13.1-35.1-2c-4.4,6.6-2.4,15.5,4.6,19.2c3.1,1.6,6.6,2.4,9.9,3.4   c2.7,0.9,5.6,1.4,8.3,2.5c2.4,0.9,4.1,2.7,4.3,5.6c0.1,3.1-1.5,5.2-4.1,6.3c-5.2,2.3-10.4,2.3-15.3-1c-1.7-1.1-3.2-2.5-5.1-4.1   C720.7,969.8,718.6,971.4,716.3,973.1z M819.8,937.2c-7.1-8.6-20-11.4-30.9-6.9c-11.3,4.7-16.9,15-16.2,27.3   c0.7,13.2,8.2,22.2,20.1,25c11.1,2.6,21.7-0.7,26.5-8.6c-2-1.8-4.1-3.6-6.1-5.4c-1.2,1-1.8,1.6-2.5,2.1c-9.2,7.3-21.5,4.4-26.2-6.3   c-2.4-5.3-2.4-10.8-0.5-16.3c3.6-10.3,15.6-14.4,24.8-8.5c1.5,1,2.9,2.1,4.7,3.4C815.7,941,817.7,939.1,819.8,937.2z M1407.6,938   c0,2.7,0,4.9,0,7.1c0.1,8.1-0.1,16.1,0.2,24.2c0.6,13.7,8.9,14.9,17.8,14.1c2.2-0.2,4.3-1,6.4-1.5c0-3,0-5.5,0-8.3   c-1.6,0.4-2.6,0.6-3.6,0.8c-8.4,1.3-11-0.8-11.1-9.3c-0.1-7.4-0.1-14.9,0-22.3c0-1.6,0.4-3.1,0.7-5.3c4.8,0,9.3,0,14.1,0   c0-2.8,0-4.9,0-7.9c-4.9,0-9.5,0-14.9,0c0-5.3,0-9.7,0-14.4c-3.4,0-6,0-9.3,0c0,4.8,0,9.2,0,14c-4.1,0.4-7.5,0.7-10.9,1   c0,2.6,0,4.8,0,7.2C1400.4,937.6,1403.4,937.8,1407.6,938z M1522.2,930.1c-1.2,6.5-0.7,47.9,0.5,51.9c2.6,0,5.1,0,8.4,0   c0-5.8-0.1-11.1,0-16.4c0.1-5.1,0-10.3,0.7-15.4c1.1-8.3,5.9-12.2,14.3-12.4c1.4,0,2.8-0.1,4.8-0.2c0-2.9,0-5.6,0-8.5   c-8.1-1.9-14.2,1.6-19.9,6.7c-0.5-2.3-0.9-4-1.3-5.7C1526.9,930.1,1524.5,930.1,1522.2,930.1z M1125.8,982c0.1-2.5,0.3-4.5,0.3-6.6   c0-6.4-0.1-12.8,0.1-19.2c0.1-3.1,0.5-6.2,1.4-9.1c1.9-6.2,5.8-9,12.3-9.4c1.8-0.1,3.6,0,5.8,0c0-3.3,0-6,0-8.8   c-7.6-1.5-13.3,1-18.4,5.8c-0.3,0.3-1,0.3-1.7,0.5c-0.3-1.8-0.6-3.4-0.9-5.1c-2.7,0-5.3,0-7.6,0c0,17.5,0,34.5,0,51.8   C1120.2,982,1122.6,982,1125.8,982z M1641.4,969.5c-3.7,0.1-6.8,3.1-6.7,6.7c0,3.5,3.2,6.5,6.9,6.6c4,0,7.2-3.1,6.9-7.1   C1648.2,972,1645.3,969.3,1641.4,969.5z M980.5,982.7c3.8,0,6.8-2.9,6.8-6.5c0.1-3.8-2.7-6.6-6.6-6.7c-4.1-0.1-7.4,2.9-7.2,6.8   C973.6,979.8,976.8,982.7,980.5,982.7z"></path>
	<path class="st1" d="M590.8,911.8c7.6,0.5,14.4,0.5,21,1.4c6.5,0.9,10,5.3,10.1,11.3c0.1,6.2-2.9,10.1-9.5,11.8   c-7,1.9-14.2,1-21.6,1.2C590.8,928.9,590.8,921,590.8,911.8z"></path>
	<path class="st1" d="M492.1,974.7c-10.5,0.1-18.2-7.6-18.3-18.4c-0.1-11.1,7.6-19.4,18.1-19.4c10.4,0,17.9,7.9,18,18.9   C509.9,966.8,502.6,974.6,492.1,974.7z"></path>
	<path class="st1" d="M912.4,950.2c1.6-8.7,7.4-13.3,16.1-13.2c8.4,0.1,13.4,4.4,14.7,12.6C939.2,951,921.6,951.4,912.4,950.2z"></path>
	<path class="st1" d="M1573.2,950.3c2.6-9.7,9.1-14.3,18.1-13.3c8.1,0.9,12.4,5.1,12.9,13.3C1594,950.3,1583.9,950.3,1573.2,950.3z"></path>
	<path class="st1" d="M1198.9,950.7c-10.7,0.1-20.8,0.1-31.1,0c1.7-9.2,7.5-13.9,16.2-13.8C1192.5,937.1,1197.3,941.2,1198.9,950.7z   "></path>
	<path class="st1" d="M1267.3,950.8c-8.6,0-16.8,0-24.9,0c-1.8,0-3.6-0.2-5.4-0.3c0.6-8.2,6.6-13.4,15.4-13.5   C1261.2,936.8,1266.6,941.5,1267.3,950.8z"></path>
	<path class="st1" d="M691.7,950.4c-10.4,0-20.3,0-30.3,0c0.6-8.2,6.6-13.3,15.4-13.5C685.6,936.8,691,941.5,691.7,950.4z"></path>
	<path class="st1" d="M1474.5,974.7c-10.5,0.1-18.1-7.6-18.2-18.5c-0.1-11.1,7.7-19.4,18.2-19.3c10.3,0.1,17.9,8.1,18,18.9   C1492.5,966.7,1484.9,974.7,1474.5,974.7z"></path>
	<path class="st1" d="M328.2,955.4c0.2-10.9,7.9-18.6,18.3-18.4c10.6,0.2,17.9,8.4,17.6,19.7c-0.3,10.8-8,18.3-18.7,18   C335,974.5,328,966.6,328.2,955.4z"></path>
	<path class="st1" d="M401.4,956.1c-0.1-11.1,7.1-19,17.6-19.2c10.6-0.2,18.4,7.9,18.4,19.1c0,10.9-7.4,18.7-18,18.7   C408.8,974.8,401.4,967.2,401.4,956.1z"></path>
</g>
</svg>
